<svg id="Layer_1" data-name="Layer 1" xmlns="http://www.w3.org/2000/svg" viewBox="0 0 2662 608"><defs><style>.cls-1{fill:#fff;}.cls-2{isolation:isolate;}</style></defs><path class="cls-1" d="M607.5,173.41l-1.32-3.52C480.73,31.73,476.39,33.33,472.31,35.12c-4.78,2.05-70.64,69.34-126.52,127L216.32,34l-7.16.06L79.31,165.47l-1.51,3.59-2.07,135,1.51,3.78L209.35,440.33,340.51,571h7.1L479.28,440.84l127.27-131L608,306.2ZM339.69,300.12l-115.58-1L340.63,182Zm-.06,10.37-.94,114.86L223.8,309.53Zm10.18.06,113.7,1L348.87,426.11Zm.07-10.37.94-118,112.94,119Zm8.17-125.36,112,1.73.69,116.91ZM215.82,292.88l.94-117.29,116.59-.83Zm-10.12-2.05L97,176.49l109.61-.83ZM331.59,432.77,218,431.49,217,317.27Zm141.16-116-2.07,115.31-114,.77Zm7.41-140,110.36,1.73L480.85,293.78Zm-.06-10.37L479.41,50.3C498.7,68.35,552.25,126,590.53,168Zm-10.18-.13L357.8,164.51c40-41.17,92.45-94.82,111.43-113.26Zm-253-1,.94-115.31L333.4,164.38Zm-10.18.06-113.57.83L207.58,50.3ZM199.29,299,86,299l1.82-117.23Zm7.48,10.37.94,114.73L93.26,309.34ZM338.63,443.21,339,554.93l-113.44-113Zm10.18,0,114.2-.77L349.12,555.06ZM483.12,309.4,591,311.19,481,424.32ZM597.82,301l-107.91-1.79L597.32,186.22Z"/><g class="cls-2"><path class="cls-1" d="M708,414.75q-15.72,0-26.72-12.29t-11-29.71V276.66q0-17.55,11.07-29.85T708,234.52q15.72,0,26.65,12.36t10.94,29.78v20.09H720.93V276.1a15.67,15.67,0,0,0-4-10.82,12.58,12.58,0,0,0-9.69-4.49,12.36,12.36,0,0,0-9.61,4.49,15.81,15.81,0,0,0-4,10.82v96.36a15.54,15.54,0,0,0,4,10.75,12.43,12.43,0,0,0,9.61,4.43,12.65,12.65,0,0,0,9.69-4.43,15.41,15.41,0,0,0,4-10.75v-24.3h24.64v24.59q0,17.55-11.06,29.78T708,414.75Z"/><path class="cls-1" d="M822.1,234.24q15.71,0,26.71,12.36t11,29.78v96.08q0,17.57-11.06,29.86T822.1,414.61q-15.72,0-26.66-12.36T784.5,372.46V276.38q0-17.56,11.07-29.85T822.1,234.24Zm12.95,41.58a15.54,15.54,0,0,0-4-10.75,12.44,12.44,0,0,0-9.62-4.42,12.62,12.62,0,0,0-9.68,4.42,15.37,15.37,0,0,0-4,10.75v96.36a15.37,15.37,0,0,0,4,10.75,12.63,12.63,0,0,0,9.68,4.43,12.45,12.45,0,0,0,9.62-4.43,15.54,15.54,0,0,0,4-10.75Z"/><path class="cls-1" d="M924.27,412.5H900.51V236.34h34.1l22.14,126.55L978,236.34h32.76V412.5H987V301.81L966.39,412.5H947.28l-23-110.41Z"/><path class="cls-1" d="M1075.6,412.5h-23.76V236.34h34.1l22.14,126.55,21.26-126.55h32.76V412.5h-23.76V301.81L1117.72,412.5h-19.11l-23-110.41Z"/><path class="cls-1" d="M1240.64,414.47q-15.72,0-26.65-12.22t-10.94-29.64V236.48h23.26V372.32a15.41,15.41,0,0,0,4,10.75,12.63,12.63,0,0,0,9.68,4.43,12.45,12.45,0,0,0,9.62-4.43,15.54,15.54,0,0,0,4-10.75V236.48h24.77V372.61q0,17.7-11.07,29.78T1240.64,414.47Z"/><path class="cls-1" d="M1346,236.34l31.53,118.39V236.34h23.76V412.5h-25.52l-32.69-112.8V412.5H1319.3V236.34Z"/><path class="cls-1" d="M1466.11,412.5h-23.77v-176h23.77Z"/><path class="cls-1" d="M1530.31,263.18H1505v-26.7h74.18v26.7h-25.14V412.5h-23.77Z"/><path class="cls-1" d="M1647.2,338.75l-31.81-102.41h26.15l17.6,63.22,17.48-63.22h26.27L1671,338.75V412.5H1647.2Z"/><path class="cls-1" d="M1926.15,368.67q.24,18.4-8.55,31.47a31,31,0,0,1-16.35,12.5,40.21,40.21,0,0,1-13.2,2q-14,0-23.13-7.73-7.68-6.31-12.13-17.21a76,76,0,0,1-5.22-24.93l22.63-1.83q1.5,15.39,7.29,22.31,4.27,5.23,9.81,4.94,7.79-.27,12.44-8.57,2.38-4.08,2.39-11.67,0-11-8.92-21.79l-21.13-22.36q-11.82-12.79-16.72-22.92a58.1,58.1,0,0,1-5.28-24.75q0-24,14.46-36.41,8.93-7.45,22.13-7.45,12.69,0,21.75,6.32a35.33,35.33,0,0,1,11.38,13.77,55.41,55.41,0,0,1,5.21,20.36l-22.75,4.64q-1-10.81-5.53-16.86-3.27-4.35-9.43-4.35-6.54,0-9.94,6.46a27.33,27.33,0,0,0-2.76,12.92q0,12.09,9.3,24.59a83.5,83.5,0,0,0,10.56,11.23q8.31,7.74,10.94,10.82A89.68,89.68,0,0,1,1919,343.53a80.78,80.78,0,0,1,3.65,8.28A53.37,53.37,0,0,1,1926.15,368.67Z"/><path class="cls-1" d="M2003.17,414.47q-15.7,0-26.65-12.22t-10.94-29.64V236.48h23.26V372.32a15.41,15.41,0,0,0,4,10.75,12.65,12.65,0,0,0,9.68,4.43,12.44,12.44,0,0,0,9.62-4.43,15.54,15.54,0,0,0,4-10.75V236.48h24.77V372.61q0,17.7-11.06,29.78T2003.17,414.47Z"/><path class="cls-1" d="M2119.3,236.48q17.35,0,27.66,12.23,9.55,11.66,9.56,29.78v25.56q0,17.43-10.88,29.78T2119.3,346.2h-13.7v66.3h-23.76v-176Zm14.21,42.43q0-6.89-3.71-11.1a12.49,12.49,0,0,0-9.87-4.21H2105.6v56.33h14.33a12.36,12.36,0,0,0,9.62-4.5,15.78,15.78,0,0,0,4-10.81Z"/><path class="cls-1" d="M2232.79,236.48q17.36,0,27.66,12.23,9.56,11.66,9.55,29.78v25.56q0,17.43-10.87,29.78t-26.34,12.37h-13.7v66.3h-23.77v-176ZM2247,278.91q0-6.89-3.71-11.1a12.5,12.5,0,0,0-9.87-4.21h-14.33v56.33h14.33a12.36,12.36,0,0,0,9.62-4.5,15.78,15.78,0,0,0,4-10.81Z"/><path class="cls-1" d="M2343.76,234.24q15.72,0,26.72,12.36t11,29.78v96.08q0,17.57-11.06,29.86t-26.66,12.29q-15.71,0-26.65-12.36t-10.94-29.79V276.38q0-17.56,11.07-29.85T2343.76,234.24Zm12.95,41.58a15.54,15.54,0,0,0-4-10.75,12.42,12.42,0,0,0-9.61-4.42,12.61,12.61,0,0,0-9.68,4.42,15.37,15.37,0,0,0-4,10.75v96.36a15.37,15.37,0,0,0,4,10.75,12.62,12.62,0,0,0,9.68,4.43,12.43,12.43,0,0,0,9.61-4.43,15.54,15.54,0,0,0,4-10.75Z"/><path class="cls-1" d="M2459.77,236.48q19.86,0,29.17,12.23,8.16,10.66,8.17,29.78v25.56q0,18.69-12.7,31.61L2502,412.5h-25.7l-14.4-66.3h-15.85v66.3H2422.3v-176Zm14.2,42.43q0-15.32-13.57-15.31h-14.34v56.33h14.34a12.34,12.34,0,0,0,9.61-4.5,15.73,15.73,0,0,0,4-10.81Z"/><path class="cls-1" d="M2559.68,263.18h-25.27v-26.7h74.18v26.7h-25.15V412.5h-23.76Z"/></g></svg>