<svg id="Layer_1" data-name="Layer 1" xmlns="http://www.w3.org/2000/svg" viewBox="0 0 1399 608"><defs><style>.cls-1{fill:#fff;}.cls-2{isolation:isolate;}</style></defs><path class="cls-1" d="M607.5,173.41l-1.32-3.52C480.73,31.73,476.39,33.33,472.31,35.12c-4.78,2.05-70.64,69.34-126.52,127L216.32,34l-7.16.06L79.31,165.47l-1.51,3.59-2.07,135,1.51,3.78L209.35,440.33,340.51,571h7.1L479.28,440.84l127.27-131L608,306.2ZM339.69,300.12l-115.58-1L340.63,182Zm-.06,10.37-.94,114.86L223.8,309.53Zm10.18.06,113.7,1L348.87,426.11Zm.07-10.37.94-118,112.94,119Zm8.17-125.36,112,1.73.69,116.91ZM215.82,292.88l.94-117.29,116.59-.83Zm-10.12-2.05L97,176.49l109.61-.83ZM331.59,432.77,218,431.49,217,317.27Zm141.16-116-2.07,115.31-114,.77Zm7.41-140,110.36,1.73L480.85,293.78Zm-.06-10.37L479.41,50.3C498.7,68.35,552.25,126,590.53,168Zm-10.18-.13L357.8,164.51c40-41.17,92.45-94.82,111.43-113.26Zm-253-1,.94-115.31L333.4,164.38Zm-10.18.06-113.57.83L207.58,50.3ZM199.29,299,86,299l1.82-117.23Zm7.48,10.37.94,114.73L93.26,309.34ZM338.63,443.21,339,554.93l-113.44-113Zm10.18,0,114.2-.77L349.12,555.06ZM483.12,309.4,591,311.19,481,424.32ZM597.82,301l-107.91-1.79L597.32,186.22Z"/><g class="cls-2"><g class="cls-2"><path class="cls-1" d="M663.38,294A26.18,26.18,0,0,1,644,285.86a26.79,26.79,0,0,1-8-19.54v-63.2a26.84,26.84,0,0,1,8-19.64,27.13,27.13,0,0,1,38.68.05,27,27,0,0,1,7.93,19.59v13.21H672.77V202.75a9.81,9.81,0,0,0-2.91-7.12,9.53,9.53,0,0,0-7-2.95,9.39,9.39,0,0,0-7,2.95,9.89,9.89,0,0,0-2.87,7.12v63.39a9.73,9.73,0,0,0,2.87,7.07,9.46,9.46,0,0,0,7,2.91,9.94,9.94,0,0,0,9.94-10v-16h17.88v16.17a26.72,26.72,0,0,1-8,19.59A26.25,26.25,0,0,1,663.38,294Z"/><path class="cls-1" d="M745.66,175.21A26.14,26.14,0,0,1,765,183.34a27,27,0,0,1,8,19.59v63.21a26.83,26.83,0,0,1-8,19.63,26.27,26.27,0,0,1-19.33,8.09,26,26,0,0,1-19.34-8.13,27,27,0,0,1-7.94-19.59V202.93a26.83,26.83,0,0,1,8-19.63A26.17,26.17,0,0,1,745.66,175.21Zm9.39,27.35a9.69,9.69,0,0,0-2.87-7.06,9.42,9.42,0,0,0-7-2.92,10,10,0,0,0-9.94,10V266a10,10,0,0,0,9.94,10,9.45,9.45,0,0,0,7-2.91,9.71,9.71,0,0,0,2.87-7.07Z"/><path class="cls-1" d="M819.27,292.47H802V176.6h24.74l16.06,83.24,15.42-83.24H882V292.47H864.78V219.66l-15,72.81H836l-16.69-72.63Z"/><path class="cls-1" d="M928.54,292.47H911.3V176.6H936l16.07,83.24,15.42-83.24h23.76V292.47H974.05V219.66L959.1,292.47H945.23l-16.69-72.63Z"/><path class="cls-1" d="M1047.76,293.76a26.16,26.16,0,0,1-19.34-8,26.74,26.74,0,0,1-7.94-19.5V176.69h16.88V266a10,10,0,0,0,9.94,10,9.45,9.45,0,0,0,7-2.91,9.7,9.7,0,0,0,2.87-7.07V176.69h18v89.54a27.26,27.26,0,0,1-27.36,27.53Z"/><path class="cls-1" d="M1123.66,176.6l22.88,77.87V176.6h17.24V292.47h-18.52l-23.71-74.2v74.2h-17.24V176.6Z"/><path class="cls-1" d="M1210.3,292.47h-17.24V176.69h17.24Z"/><path class="cls-1" d="M1256.37,194.25H1238V176.69h53.82v17.56h-18.24v98.22h-17.24Z"/><path class="cls-1" d="M1340.65,244l-23.08-67.36h19l12.77,41.58L1362,176.6h19.07L1357.89,244v48.51h-17.24Z"/></g><g class="cls-2"><path class="cls-1" d="M693,419.76q.18,12.11-6.2,20.7A22.34,22.34,0,0,1,675,448.68a32,32,0,0,1-9.57,1.3q-10.12,0-16.79-5.09a28.35,28.35,0,0,1-8.8-11.31A46.11,46.11,0,0,1,636,417.17l16.41-1.2q1.1,10.13,5.29,14.68a8.79,8.79,0,0,0,7.12,3.25c3.77-.12,6.78-2,9-5.64q1.73-2.68,1.73-7.68,0-7.21-6.47-14.33L653.8,391.54q-8.56-8.42-12.13-15.08a35.26,35.26,0,0,1-3.83-16.27q0-15.81,10.49-24,6.48-4.89,16-4.9a28.92,28.92,0,0,1,15.78,4.16,23.94,23.94,0,0,1,8.26,9.06,33.84,33.84,0,0,1,3.78,13.39L675.69,361q-.72-7.11-4-11.08a8.37,8.37,0,0,0-6.84-2.87,7.89,7.89,0,0,0-7.21,4.25,16.66,16.66,0,0,0-2,8.5q0,7.95,6.75,16.17a56.91,56.91,0,0,0,7.66,7.4c4,3.38,6.66,5.76,7.93,7.11a58.94,58.94,0,0,1,9.85,12.75,48.63,48.63,0,0,1,2.65,5.45A32.15,32.15,0,0,1,693,419.76Z"/><path class="cls-1" d="M748.39,449.88a26.12,26.12,0,0,1-19.33-8,26.74,26.74,0,0,1-7.94-19.5V332.81H738v89.35a10,10,0,0,0,10,10,9.42,9.42,0,0,0,7-2.91,9.67,9.67,0,0,0,2.88-7.07V332.81h18v89.54a27.25,27.25,0,0,1-27.36,27.53Z"/><path class="cls-1" d="M832.13,332.81q12.58,0,20.06,8,6.93,7.66,6.93,19.59v16.82a27.11,27.11,0,0,1-7.89,19.59,25.62,25.62,0,0,1-19.1,8.13h-10v43.61H805V332.81Zm10.3,27.91a10,10,0,0,0-2.69-7.3,9.51,9.51,0,0,0-7.16-2.78h-10.4V387.7h10.4a9.38,9.38,0,0,0,7-3,9.85,9.85,0,0,0,2.87-7.11Z"/><path class="cls-1" d="M913.94,332.81q12.6,0,20.07,8,6.93,7.66,6.93,19.59v16.82a27.11,27.11,0,0,1-7.89,19.59A25.65,25.65,0,0,1,913.94,405H904v43.61H886.76V332.81Zm10.31,27.91a10,10,0,0,0-2.69-7.3,9.51,9.51,0,0,0-7.16-2.78H904V387.7h10.4a9.38,9.38,0,0,0,7-3,9.85,9.85,0,0,0,2.87-7.11Z"/><path class="cls-1" d="M993.94,331.33a26.14,26.14,0,0,1,19.38,8.13,27,27,0,0,1,8,19.59v63.21a26.82,26.82,0,0,1-8,19.63A26.29,26.29,0,0,1,993.94,450a26,26,0,0,1-19.34-8.13,27,27,0,0,1-7.93-19.59V359.05a26.82,26.82,0,0,1,8-19.63A26.17,26.17,0,0,1,993.94,331.33Zm9.39,27.35a9.63,9.63,0,0,0-2.87-7.06,9.4,9.4,0,0,0-7-2.92,10,10,0,0,0-9.94,10v63.39a10,10,0,0,0,9.94,10,9.43,9.43,0,0,0,7-2.91,9.67,9.67,0,0,0,2.87-7.07Z"/><path class="cls-1" d="M1077.58,332.81q14.42,0,21.17,8,5.93,7,5.92,19.59v16.82a27.22,27.22,0,0,1-9.21,20.79l12.77,50.54h-18.64L1079.13,405h-11.49v43.61H1050.4V332.81Zm10.31,27.91q0-10.08-9.85-10.08h-10.4V387.7H1078a9.38,9.38,0,0,0,7-3,9.85,9.85,0,0,0,2.87-7.11Z"/><path class="cls-1" d="M1149.55,350.37h-18.33V332.81H1185v17.56h-18.25v98.22h-17.24Z"/></g></g></svg>