<?xml version="1.0" encoding="utf-8"?>
<!-- Generator: Adobe Illustrator 24.1.1, SVG Export Plug-In . SVG Version: 6.00 Build 0)  -->
<svg version="1.1" id="Layer_1" xmlns="http://www.w3.org/2000/svg" xmlns:xlink="http://www.w3.org/1999/xlink" x="0px" y="0px"
	 viewBox="0 0 1399 608" style="enable-background:new 0 0 1399 608;" xml:space="preserve">
<style type="text/css">
	.st0{fill:#FFFFFF;}
	.st1{font-family:'Bebas';}
	.st2{font-size:130.1024px;}
	.st3{letter-spacing:14.18;}
</style>
<path class="st0" d="M607.5,173.41l-1.32-3.52C480.73,31.73,476.39,33.33,472.31,35.12c-4.78,2.05-70.64,69.34-126.52,127.02
	L216.32,34.03l-7.16,0.06L79.31,165.47l-1.51,3.59l-2.07,135.03l1.51,3.78l132.11,132.46L340.51,571h7.1l131.67-130.16
	l127.27-130.99l1.45-3.65L607.5,173.41z M339.69,300.12l-115.58-0.96l116.52-117.16L339.69,300.12z M339.63,310.49l-0.94,114.86
	L223.8,309.53L339.63,310.49z M349.81,310.55l113.7,0.96l-114.64,114.6L349.81,310.55z M349.88,300.18l0.94-118l112.94,118.96
	L349.88,300.18z M358.05,174.82l112,1.73l0.69,116.91L358.05,174.82z M215.82,292.88l0.94-117.29l116.59-0.83L215.82,292.88z
	 M205.7,290.83L96.97,176.49l109.61-0.83L205.7,290.83z M331.59,432.77l-113.63-1.28l-0.94-114.22L331.59,432.77z M472.75,316.76
	l-2.07,115.31l-114.01,0.77L472.75,316.76z M480.16,176.74l110.36,1.73L480.85,293.78L480.16,176.74z M480.1,166.37L479.41,50.3
	c19.29,18.05,72.84,75.74,111.12,117.74L480.1,166.37z M469.92,166.24l-112.12-1.73c39.97-41.17,92.45-94.82,111.43-113.26
	L469.92,166.24z M216.88,165.22l0.94-115.31l115.58,114.47L216.88,165.22z M206.7,165.28l-113.57,0.83L207.58,50.3L206.7,165.28z
	 M199.29,299.03l-113.32-0.06l1.82-117.23L199.29,299.03z M206.77,309.4l0.94,114.73L93.26,309.34L206.77,309.4z M338.63,443.21
	L339,554.93l-113.44-113L338.63,443.21z M348.81,443.21l114.2-0.77L349.12,555.06L348.81,443.21z M483.12,309.4l107.85,1.79
	L480.98,424.32L483.12,309.4z M597.82,300.95l-107.91-1.79l107.41-112.94L597.82,300.95z"/>
<text transform="matrix(0.9871 0 0 1 630.0879 292.4712)"><tspan x="0" y="0" class="st0 st1 st2 st3">Community</tspan><tspan x="0" y="156.12" class="st0 st1 st2 st3">Support</tspan></text>
</svg>
